<svg xmlns="http://www.w3.org/2000/svg" width="228" height="216" viewBox="0 0 228 216" version="1.1">
	<path d="M 112.068 12.882 C 109.372 13.367, 108.474 14.112, 107.876 16.357 C 107.458 17.929, 106.450 19.954, 105.636 20.857 C 104.822 21.761, 103.852 23.719, 103.480 25.209 C 103.108 26.699, 102.185 28.432, 101.428 29.059 C 100.672 29.687, 99.769 31.715, 99.422 33.565 C 99.075 35.415, 98.163 37.450, 97.395 38.087 C 96.628 38.724, 96 39.752, 96 40.372 C 96 40.993, 93.750 46, 91 51.500 C 88.250 57, 86 62.007, 86 62.628 C 86 63.248, 85.354 64.291, 84.564 64.947 C 83.775 65.602, 82.816 67.570, 82.434 69.319 C 82.052 71.069, 80.898 73.573, 79.870 74.885 C 78.841 76.197, 77.997 77.997, 77.993 78.885 C 77.990 79.773, 77.093 81.850, 76 83.500 C 74.907 85.150, 74.010 87.227, 74.007 88.115 C 74.003 89.003, 73.159 90.803, 72.130 92.115 C 71.102 93.427, 69.948 95.931, 69.566 97.681 C 69.184 99.430, 68.225 101.398, 67.436 102.053 C 66.646 102.709, 66 103.707, 66 104.273 C 66 105.237, 65.214 107.017, 58.604 121.014 C 57.172 124.047, 56 127.030, 56 127.642 C 56 128.254, 55.354 129.291, 54.564 129.947 C 53.775 130.602, 52.816 132.570, 52.434 134.319 C 52.052 136.069, 50.898 138.573, 49.870 139.885 C 48.841 141.197, 48 143.264, 48 144.480 C 48 145.695, 47.100 147.505, 46 148.500 C 44.900 149.495, 44 151.305, 44 152.520 C 44 153.736, 43.100 155.874, 42 157.273 C 40.900 158.671, 40 160.471, 40 161.273 C 40 162.074, 39.100 163.874, 38 165.273 C 36.900 166.671, 36 168.353, 36 169.010 C 36 169.668, 34.933 172.297, 33.628 174.853 C 32.324 177.409, 30.232 181.750, 28.980 184.500 C 27.728 187.250, 26.235 190.400, 25.662 191.500 C 22.153 198.241, 20.938 201.271, 21.512 201.847 C 22.474 202.810, 43.961 202.965, 46.429 202.027 C 47.591 201.585, 49.037 200.161, 49.642 198.862 C 50.247 197.563, 51.924 194.019, 53.371 190.986 C 54.817 187.953, 56 184.970, 56 184.358 C 56 183.746, 56.621 182.730, 57.379 182.100 C 58.138 181.470, 59.034 179.579, 59.371 177.896 C 59.707 176.214, 60.886 173.689, 61.991 172.284 C 63.096 170.879, 64 168.960, 64 168.018 C 64 167.076, 64.900 165.268, 66 164 C 67.100 162.732, 68 161.028, 68 160.215 C 68 159.402, 68.851 157.333, 69.892 155.618 C 70.933 153.903, 72.087 151.069, 72.456 149.319 C 72.826 147.570, 73.775 145.602, 74.564 144.947 C 75.354 144.291, 76 143.254, 76 142.642 C 76 142.030, 77.070 139.272, 78.378 136.514 C 79.686 133.756, 81.258 130.375, 81.871 129 C 82.484 127.625, 83.362 125.825, 83.822 125 C 86.845 119.581, 88.842 115.071, 89.439 112.319 C 89.818 110.570, 90.775 108.602, 91.564 107.947 C 92.354 107.291, 93 106.317, 93 105.781 C 93 104.816, 102.287 84.883, 104.080 82 C 104.593 81.175, 105.284 79.825, 105.616 79 C 106.310 77.274, 110.862 67.233, 111.962 65 C 112.369 64.175, 114.054 63.364, 115.708 63.197 C 118.294 62.937, 118.897 63.355, 120.031 66.197 C 120.756 68.014, 122.171 70.694, 123.175 72.154 C 124.179 73.614, 125 75.466, 125 76.270 C 125 77.073, 125.900 78.874, 127 80.273 C 128.100 81.671, 129.014 83.419, 129.031 84.158 C 129.048 84.896, 130.169 87.750, 131.522 90.500 C 132.875 93.250, 133.986 96.007, 133.991 96.628 C 133.996 97.248, 134.663 98.305, 135.474 98.978 C 136.284 99.651, 137.229 101.701, 137.573 103.535 C 137.917 105.369, 139.053 107.643, 140.099 108.590 C 141.145 109.536, 142 111.305, 142 112.520 C 142 113.736, 142.841 115.803, 143.870 117.115 C 144.898 118.427, 146.052 120.931, 146.434 122.681 C 146.816 124.430, 147.730 126.361, 148.466 126.972 C 149.202 127.582, 150.092 129.301, 150.444 130.791 C 150.996 133.128, 152.427 136.499, 156.158 144.250 C 156.621 145.213, 157.373 146.787, 157.829 147.750 C 158.285 148.713, 159.635 151.389, 160.829 153.698 C 162.023 156.007, 163 158.534, 163 159.313 C 163 160.093, 163.872 161.839, 164.938 163.194 C 166.004 164.549, 167.198 166.972, 167.591 168.579 C 167.983 170.186, 169.136 172.573, 170.152 173.885 C 171.169 175.197, 172.003 176.997, 172.007 177.885 C 172.010 178.773, 172.907 180.850, 174 182.500 C 175.093 184.150, 175.990 186.227, 175.993 187.115 C 175.997 188.003, 176.831 189.803, 177.848 191.115 C 178.864 192.427, 179.989 194.706, 180.349 196.180 C 181.645 201.491, 183.063 202, 196.571 202 C 208.426 202, 209 201.906, 209 199.954 C 209 198.829, 207.875 195.795, 206.500 193.212 C 205.125 190.629, 203.990 187.837, 203.978 187.008 C 203.966 186.179, 203.076 184.375, 202 183 C 200.924 181.625, 200.034 179.781, 200.022 178.903 C 200.010 178.025, 199.100 176.268, 198 175 C 196.900 173.732, 196 171.924, 196 170.982 C 196 170.040, 195.162 168.197, 194.138 166.885 C 193.113 165.573, 191.935 163.375, 191.519 162 C 191.104 160.625, 190.177 158.825, 189.460 158 C 188.743 157.175, 187.827 155.150, 187.425 153.500 C 187.024 151.850, 185.864 149.427, 184.848 148.115 C 183.831 146.803, 183 145.093, 183 144.313 C 183 143.534, 182.155 141.232, 181.122 139.198 C 178.700 134.430, 175.759 128.024, 172.538 120.500 C 171.125 117.200, 169.076 112.836, 167.985 110.802 C 166.893 108.768, 166 106.466, 166 105.687 C 166 104.907, 165.100 103.126, 164 101.727 C 162.900 100.329, 162 98.425, 162 97.497 C 162 96.568, 161.156 94.614, 160.124 93.154 C 159.093 91.694, 157.939 89.069, 157.560 87.319 C 157.181 85.570, 156.225 83.602, 155.436 82.947 C 154.646 82.291, 154 81.202, 154 80.526 C 154 79.851, 152.875 77.182, 151.500 74.596 C 150.125 72.010, 149 69.425, 149 68.851 C 149 68.278, 148.156 66.614, 147.124 65.154 C 146.093 63.694, 144.932 61.038, 144.545 59.250 C 144.158 57.462, 143.462 56, 142.998 56 C 142.534 56, 141.605 54.313, 140.932 52.250 C 140.259 50.188, 138.875 47.427, 137.855 46.115 C 136.835 44.803, 136 43.093, 136 42.313 C 136 41.534, 135.023 39.007, 133.829 36.698 C 129.656 28.631, 129.466 28.238, 124.949 18.313 C 122.083 12.018, 120.519 11.359, 112.068 12.882 M 85.500 16.745 C 84.400 16.961, 81.592 18.007, 79.261 19.069 C 76.929 20.131, 74.368 21, 73.570 21 C 72.771 21, 71.817 21.487, 71.449 22.083 C 71.081 22.678, 68.917 24.031, 66.640 25.088 C 64.363 26.145, 61.334 27.796, 59.910 28.755 C 58.485 29.715, 55.335 31.800, 52.910 33.390 C 47.760 36.765, 34.897 49.765, 31.118 55.414 C 27.091 61.435, 24.213 66.251, 23 69 C 22.393 70.375, 21.020 73.330, 19.948 75.566 C 18.877 77.802, 18 80.289, 18 81.093 C 18 81.897, 17.324 83.521, 16.497 84.701 C 15.619 85.954, 14.571 91.142, 13.977 97.173 C 13.418 102.853, 12.701 108.771, 12.384 110.325 C 11.548 114.428, 13.819 136.729, 15.610 142 C 16.451 144.475, 17.700 148.525, 18.385 151 C 19.410 154.704, 20.046 155.500, 21.982 155.500 C 23.710 155.500, 24.594 154.704, 25.316 152.500 C 25.856 150.850, 27.131 148.427, 28.149 147.115 C 29.167 145.803, 30 144.157, 30 143.457 C 30 141.883, 34.864 132.116, 36.804 129.794 C 37.876 128.512, 38.265 124.539, 38.372 113.794 C 38.482 102.776, 38.883 98.812, 40.124 96.500 C 41.009 94.850, 42.055 91.725, 42.448 89.556 C 43.057 86.201, 44.172 83.519, 47.921 76.400 C 51.407 69.778, 59.022 61.180, 65.500 56.551 C 72.750 51.370, 75.954 47.771, 76.616 44.064 C 76.967 42.104, 77.814 39.825, 78.500 39 C 79.186 38.175, 80.277 35.848, 80.925 33.830 C 81.572 31.811, 82.754 29.619, 83.551 28.958 C 84.348 28.296, 85 26.971, 85 26.012 C 85 25.054, 85.900 23.126, 87 21.727 C 90.077 17.815, 89.517 15.955, 85.500 16.745 M 142.555 19.250 C 142.934 20.488, 143.681 22.046, 144.215 22.714 C 146.003 24.951, 150.937 35.481, 150.969 37.128 C 150.986 38.023, 151.672 39.313, 152.493 39.994 C 153.314 40.675, 154.454 42.974, 155.027 45.101 C 155.715 47.656, 157.306 49.909, 159.712 51.735 C 166.667 57.014, 174.080 64.376, 178.026 69.923 C 183.013 76.935, 188.521 88.279, 189.456 93.465 C 189.850 95.646, 190.831 98.706, 191.637 100.265 C 192.745 102.407, 193.046 106.267, 192.871 116.061 C 192.660 127.931, 192.820 129.265, 194.776 131.911 C 195.950 133.499, 197.225 136.082, 197.608 137.650 C 197.991 139.217, 199.136 141.573, 200.152 142.885 C 201.169 144.197, 202 145.843, 202 146.543 C 202 147.243, 203.192 150.113, 204.648 152.920 L 207.297 158.025 210.148 152.371 C 211.717 149.262, 213 145.673, 213 144.396 C 213 143.119, 213.900 139.791, 215 137 C 216.734 132.600, 217 129.568, 217 114.178 C 217 98.994, 216.711 95.609, 215 90.740 C 213.900 87.611, 212.998 84.251, 212.996 83.275 C 212.994 82.299, 212.170 80.150, 211.165 78.500 C 210.161 76.850, 209.009 74.186, 208.607 72.579 C 208.205 70.972, 207.004 68.549, 205.938 67.194 C 204.872 65.839, 204 64.361, 204 63.910 C 204 62.652, 199.482 56.256, 193.052 48.413 C 187.561 41.715, 173.257 29, 171.213 29 C 170.694 29, 169.197 28.162, 167.885 27.138 C 166.573 26.113, 164.375 24.935, 163 24.519 C 161.625 24.104, 159.825 23.192, 159 22.493 C 158.175 21.794, 156.069 20.919, 154.319 20.547 C 152.570 20.175, 150.602 19.225, 149.947 18.436 C 149.291 17.646, 147.205 17, 145.310 17 C 142.200 17, 141.932 17.219, 142.555 19.250 M 105.250 119.662 C 104.563 119.940, 104 120.603, 104 121.136 C 104 121.670, 102.875 123.762, 101.500 125.785 C 100.125 127.809, 99 130.228, 99 131.161 C 99 132.094, 98.302 133.555, 97.449 134.408 C 95.811 136.046, 92.937 145.604, 93.817 146.484 C 94.101 146.768, 104.172 147, 116.198 147 C 134.206 147, 138.159 146.748, 138.610 145.574 C 138.911 144.790, 137.547 140.879, 135.579 136.884 C 133.610 132.889, 132 129.278, 132 128.860 C 132 128.442, 130.618 126.053, 128.929 123.550 L 125.858 119 116.179 119.079 C 110.856 119.122, 105.938 119.385, 105.250 119.662 M 76.595 178.428 C 75.168 180.864, 74 183.275, 74 183.787 C 74 184.299, 72.654 187.369, 71.008 190.609 L 68.017 196.500 71.258 199.194 C 73.041 200.676, 76.290 202.196, 78.478 202.571 C 80.666 202.946, 83.366 203.844, 84.478 204.567 C 85.590 205.289, 88.975 206.185, 92 206.557 C 95.025 206.929, 100.200 207.849, 103.500 208.602 C 110.444 210.186, 121.756 210.423, 125.341 209.061 C 126.700 208.544, 131.515 207.614, 136.042 206.994 C 140.569 206.374, 145.224 205.265, 146.386 204.530 C 147.549 203.794, 150.513 202.867, 152.973 202.471 C 158.449 201.587, 162.993 197.729, 162.214 194.623 C 161.922 193.455, 160.854 191.427, 159.841 190.115 C 158.828 188.803, 158.001 187.228, 158.001 186.615 C 158.002 186.002, 156.765 182.918, 155.251 179.763 C 153.593 176.306, 151.858 174.021, 150.885 174.013 C 149.997 174.006, 148.126 174.900, 146.727 176 C 145.329 177.100, 143.338 178, 142.304 178 C 141.269 178, 138.640 179.002, 136.461 180.227 C 132.815 182.278, 131.186 182.456, 115.956 182.477 C 102.505 182.496, 98.953 182.203, 96.956 180.911 C 95.605 180.036, 93.001 179.028, 91.169 178.669 C 89.337 178.311, 86.689 177.114, 85.284 176.009 C 83.879 174.904, 81.934 174, 80.960 174 C 79.924 174, 78.114 175.836, 76.595 178.428" stroke="none" fill="white" fill-rule="evenodd"/>
</svg>