<svg xmlns="http://www.w3.org/2000/svg" width="228" height="216" viewBox="0 0 228 216" version="1.1">
	<path d="M 105.785 17.732 L 102.037 26.000 C 101.469 27.375 100.590 29.175 100.084 30.000 C 98.072 33.279 94.000 42.028 94.000 43.074 C 94.000 43.685 93.100 45.329 92.000 46.727 C 90.900 48.126 90.000 49.926 90.000 50.727 C 90.000 51.529 89.100 53.329 88.000 54.727 C 86.900 56.126 86.000 58.048 86.000 59.000 C 86.000 59.952 85.159 61.803 84.130 63.115 C 83.102 64.427 81.948 66.931 81.566 68.681 C 81.184 70.430 80.225 72.398 79.436 73.053 C 78.646 73.709 78.000 74.746 78.000 75.358 C 78.000 76.464 74.575 84.120 70.913 91.198 C 69.861 93.232 69.000 95.534 69.000 96.313 C 69.000 97.093 68.169 98.803 67.152 100.115 C 66.136 101.427 64.983 103.814 64.591 105.421 C 64.198 107.028 63.004 109.451 61.938 110.806 C 60.872 112.161 60.000 113.907 60.000 114.687 C 60.000 115.466 59.139 117.768 58.087 119.802 C 54.425 126.880 51.000 134.536 51.000 135.642 C 51.000 136.254 50.354 137.291 49.564 137.947 C 48.775 138.602 47.816 140.570 47.434 142.319 C 47.052 144.069 45.898 146.573 44.870 147.885 C 43.841 149.197 43.000 150.795 43.000 151.437 L 36.514 165.552 L 30.014 179.842 C 30.006 180.581 29.100 182.329 28.000 183.727 C 26.900 185.126 25.999 186.772 25.997 187.385 C 25.995 187.998 24.464 191.538 22.594 195.251 C 18.412 203.552 18.307 203.468 32.986 203.616 C 50.064 203.788 48.055 205.478 58.686 182.000 L 62.117 175.000 C 62.635 174.175 63.339 172.650 63.682 171.611 L 66.653 165.309 C 67.944 162.881 69.000 160.304 69.000 159.582 C 69.000 158.860 69.841 157.197 70.870 155.885 C 71.898 154.573 73.052 152.069 73.434 150.319 C 73.816 148.570 74.775 146.602 75.564 145.947 C 76.354 145.291 77.000 144.084 77.000 143.264 C 77.000 142.443 77.853 140.136 78.896 138.136 L 90.908 112.000 L 92.829 108.000 L 96.476 100.500 L 100.147 93.000 L 102.129 89.000 L 109.091 74.000 C 109.963 72.568 111.529 69.004 112.524 66.183 C 113.179 64.325 118.114 65.120 119.149 67.250 L 120.970 70.750 L 130.370 90.188 C 131.817 93.317 133.000 96.396 133.000 97.030 C 133.000 97.665 133.900 99.329 135.000 100.727 C 136.100 102.126 137.000 104.048 137.000 105.000 C 137.000 105.952 137.900 107.874 139.000 109.273 C 140.100 110.671 141.000 112.358 141.000 113.022 C 141.000 113.685 141.861 115.864 142.913 117.864 L 147.022 126.500 L 151.483 136.500 L 156.462 147.500 L 160.095 155.000 C 160.600 155.825 161.289 157.175 161.627 158.000 L 173.074 183.000 C 173.590 183.825 174.258 185.175 174.559 186.000 L 176.994 191.500 L 180.359 199.174 C 181.834 202.848 181.834 202.848 195.667 202.674 C 211.776 202.471 212.194 202.124 207.700 192.672 L 200.529 177.500 L 194.927 166.000 L 186.526 148.500 L 181.736 138.000 L 177.047 127.500 L 167.042 105.500 L 161.061 92.500 L 153.129 75.000 L 151.119 71.000 L 147.523 63.500 L 143.905 56.000 C 143.400 55.175 142.716 53.825 142.384 53.000 L 135.881 39.000 L 133.871 35.000 C 123.283 11.250 124.310 12.544 115.810 12.232 C 108.500 11.963 108.500 11.963 105.785 17.732 M 84.296 16.034 C 73.487 18.376 51.596 31.364 41.820 41.236 C 31.840 51.312 18.000 72.285 18.000 77.331 C 18.000 78.017 17.127 80.289 16.060 82.382 C 14.993 84.474 13.827 88.732 13.467 91.843 L 11.375 106.000 C 8.552 122.679 15.817 157.000 22.171 157.000 C 24.039 157.000 25.267 156.380 25.639 155.250 L 30.607 144.440 L 35.000 134.505 C 35.000 134.023 35.999 132.565 37.221 131.265 C 39.299 129.053 39.425 128.119 39.179 116.701 C 38.961 106.548 39.260 103.509 40.959 98.593 C 42.081 95.345 43.000 91.917 43.000 90.976 C 43.000 84.299 56.654 64.502 65.925 57.736 C 72.280 53.099 76.893 48.198 76.974 46.000 L 83.514 31.552 C 91.606 15.398 91.654 14.440 84.296 16.034 M 142.008 16.490 C 140.979 17.730 141.591 20.164 143.897 24.000 C 146.049 27.582 150.000 36.293 150.000 37.457 C 150.000 38.157 150.831 39.803 151.848 41.115 C 152.864 42.427 153.974 44.625 154.315 46.000 C 154.967 48.629 156.106 49.870 167.672 60.553 C 174.855 67.187 182.155 76.671 183.507 81.126 C 183.904 82.432 185.077 84.903 186.114 86.618 C 187.151 88.333 188.000 90.707 188.000 91.893 C 188.000 93.079 188.900 96.611 190.000 99.740 C 192.208 106.022 192.741 118.746 190.938 122.116 C 190.087 123.707 190.566 125.527 193.358 131.300 L 197.459 140.660 C 197.799 141.848 198.735 143.365 199.539 144.032 C 200.342 144.699 201.000 146.283 201.000 147.551 C 201.000 148.819 201.694 150.551 202.542 151.399 C 203.390 152.247 204.559 154.304 205.139 155.970 C 207.003 161.315 214.000 152.355 214.000 144.624 C 214.000 143.321 214.932 140.147 216.072 137.571 C 218.888 131.204 218.626 93.560 215.730 88.500 C 214.785 86.850 214.010 84.583 214.006 83.461 C 214.003 82.340 213.149 79.754 212.109 77.714 C 211.069 75.674 209.924 72.834 209.565 71.402 C 209.205 69.971 208.031 67.495 206.956 65.900 L 203.000 60.040 C 201.900 58.413 201.000 56.713 201.000 56.263 C 201.000 55.813 200.213 54.705 199.250 53.801 L 194.000 47.487 C 192.075 44.918 187.575 40.376 184.000 37.394 L 176.000 30.643 C 173.817 28.710 157.986 20.001 156.642 19.994 C 156.014 19.990 154.150 19.261 152.500 18.373 C 147.795 15.842 143.227 15.022 142.008 16.490 M 102.071 122.550 C 100.382 125.053 99.000 127.370 99.000 127.700 C 99.000 128.030 97.926 130.595 96.613 133.400 C 89.320 148.984 87.997 148.000 116.243 148.000 C 144.369 148.000 145.212 146.290 129.184 121.750 C 125.058 115.434 106.504 115.982 102.071 122.550 M 76.978 175.250 L 75.091 179.000 L 71.459 186.500 L 67.673 194.804 C 66.335 197.689 70.312 201.386 76.500 203.009 C 78.700 203.586 81.625 204.676 83.000 205.431 C 84.375 206.186 88.200 207.127 91.500 207.523 C 94.800 207.918 99.017 208.862 100.872 209.621 C 105.343 211.449 124.401 211.469 129.624 209.651 C 131.756 208.909 136.191 207.992 139.480 207.615 C 142.769 207.237 146.416 206.302 147.584 205.537 C 148.752 204.772 151.461 203.820 153.604 203.422 C 164.663 201.368 165.380 198.537 158.470 184.219 C 152.550 171.952 150.512 170.611 145.066 175.401 C 144.205 176.158 141.943 177.109 140.040 177.514 C 138.137 177.920 134.880 179.137 132.803 180.220 C 127.620 182.921 102.020 182.576 98.027 179.750 C 96.668 178.787 94.418 177.986 93.027 177.969 C 91.637 177.952 88.700 176.829 86.500 175.474 C 81.451 172.364 78.258 172.289 76.978 175.250" stroke="none" fill="white" fill-rule="evenodd"/>
</svg>