<svg xmlns="http://www.w3.org/2000/svg" width="228" height="216" viewBox="0 0 228 216" version="1.1">
	<path d="M 117 12.145 L 115.500 12.263 112.068 12.882 L 108.637 13.500 107.876 16.357 L 107.115 19.215 105.636 20.857 L 104.156 22.500 103.480 25.209 L 102.804 27.918 101.428 29.059 L 100.053 30.201 99.422 33.565 L 98.791 36.929 97.395 38.087 L 96 39.245 96 40.372 L 96 41.500 91 51.500 L 86 61.500 86 62.628 L 86 63.755 84.564 64.947 L 83.129 66.138 82.434 69.319 L 81.739 72.500 79.870 74.885 L 78 77.270 77.993 78.885 L 77.987 80.500 76 83.500 L 74.013 86.500 74.007 88.115 L 74 89.730 72.130 92.115 L 70.261 94.500 69.566 97.681 L 68.871 100.862 67.436 102.053 L 66 103.245 66 104.273 L 66 105.300 63.604 110.400 L 61.208 115.500 58.604 121.014 L 56 126.529 56 127.642 L 56 128.755 54.564 129.947 L 53.129 131.138 52.434 134.319 L 51.739 137.500 49.870 139.885 L 48 142.270 48 144.480 L 48 146.690 46 148.500 L 44 150.310 44 152.520 L 44 154.730 42 157.273 L 40 159.815 40 161.273 L 40 162.730 38 165.273 L 36 167.815 36 169.010 L 36 170.205 33.628 174.853 L 31.256 179.500 28.980 184.500 L 26.703 189.500 25.662 191.500 L 24.621 193.500 22.741 197.347 L 20.860 201.193 21.512 201.847 L 22.165 202.500 33.240 202.665 L 44.315 202.831 46.429 202.027 L 48.542 201.223 49.642 198.862 L 50.741 196.500 53.371 190.986 L 56 185.471 56 184.358 L 56 183.245 57.379 182.100 L 58.759 180.955 59.371 177.896 L 59.982 174.838 61.991 172.284 L 64 169.730 64 168.018 L 64 166.306 66 164 L 68 161.694 68 160.215 L 68 158.736 69.892 155.618 L 71.784 152.500 72.456 149.319 L 73.129 146.138 74.564 144.947 L 76 143.755 76 142.642 L 76 141.529 78.378 136.514 L 80.756 131.500 81.871 129 L 82.985 126.500 83.822 125 L 84.659 123.500 86.704 119.500 L 88.749 115.500 89.439 112.319 L 90.129 109.138 91.564 107.947 L 93 106.755 93 105.781 L 93 104.807 98.074 94.154 L 103.147 83.500 104.080 82 L 105.013 80.500 105.616 79 L 106.219 77.500 108.721 72 L 111.223 66.500 111.962 65 L 112.702 63.500 115.708 63.197 L 118.714 62.895 120.031 66.197 L 121.349 69.500 123.175 72.154 L 125 74.809 125 76.270 L 125 77.730 127 80.273 L 129 82.815 129.031 84.158 L 129.063 85.500 131.522 90.500 L 133.982 95.500 133.991 96.628 L 134 97.755 135.474 98.978 L 136.947 100.201 137.573 103.535 L 138.198 106.869 140.099 108.590 L 142 110.310 142 112.520 L 142 114.730 143.870 117.115 L 145.739 119.500 146.434 122.681 L 147.129 125.862 148.466 126.972 L 149.804 128.082 150.444 130.791 L 151.084 133.500 153.200 138 L 155.315 142.500 156.158 144.250 L 157 146 157.829 147.750 L 158.657 149.500 160.829 153.698 L 163 157.896 163 159.313 L 163 160.730 164.938 163.194 L 166.876 165.658 167.591 168.579 L 168.305 171.500 170.152 173.885 L 172 176.270 172.007 177.885 L 172.013 179.500 174 182.500 L 175.987 185.500 175.993 187.115 L 176 188.730 177.848 191.115 L 179.695 193.500 180.349 196.180 L 181.003 198.860 182.573 200.430 L 184.143 202 196.571 202 L 209 202 209 199.954 L 209 197.908 206.500 193.212 L 204 188.516 203.978 187.008 L 203.956 185.500 202 183 L 200.044 180.500 200.022 178.903 L 200 177.306 198 175 L 196 172.694 196 170.982 L 196 169.270 194.138 166.885 L 192.275 164.500 191.519 162 L 190.763 159.500 189.460 158 L 188.156 156.500 187.425 153.500 L 186.695 150.500 184.848 148.115 L 183 145.730 183 144.313 L 183 142.896 181.122 139.198 L 179.243 135.500 177.175 131 L 175.107 126.500 172.538 120.500 L 169.969 114.500 167.985 110.802 L 166 107.104 166 105.687 L 166 104.270 164 101.727 L 162 99.185 162 97.497 L 162 95.809 160.124 93.154 L 158.249 90.500 157.560 87.319 L 156.871 84.138 155.436 82.947 L 154 81.755 154 80.526 L 154 79.298 151.500 74.596 L 149 69.894 149 68.851 L 149 67.809 147.124 65.154 L 145.249 62.500 144.545 59.250 L 143.841 56 142.998 56 L 142.155 56 140.932 52.250 L 139.709 48.500 137.855 46.115 L 136 43.730 136 42.313 L 136 40.896 133.829 36.698 L 131.657 32.500 130.645 30.500 L 129.632 28.500 128.471 26 L 127.310 23.500 124.949 18.313 L 122.587 13.125 120.544 12.576 L 118.500 12.027 117 12.145 M 88.250 16.735 L 87.500 16.352 85.500 16.745 L 83.500 17.138 79.261 19.069 L 75.022 21 73.570 21 L 72.118 21 71.449 22.083 L 70.780 23.166 66.640 25.088 L 62.500 27.010 59.910 28.755 L 57.319 30.500 52.910 33.390 L 48.500 36.280 41.118 43.890 L 33.737 51.500 31.118 55.414 L 28.500 59.328 26.301 62.914 L 24.103 66.500 23 69 L 21.896 71.500 19.948 75.566 L 18 79.631 18 81.093 L 18 82.555 16.497 84.701 L 14.994 86.847 13.977 97.173 L 12.960 107.500 12.384 110.325 L 11.808 113.151 12.944 125.325 L 14.081 137.500 15.610 142 L 17.139 146.500 18.385 151 L 19.631 155.500 21.982 155.500 L 24.333 155.500 25.316 152.500 L 26.299 149.500 28.149 147.115 L 30 144.730 30 143.457 L 30 142.185 32.689 136.842 L 35.379 131.500 36.804 129.794 L 38.230 128.088 38.372 113.794 L 38.515 99.500 40.124 96.500 L 41.733 93.500 42.448 89.556 L 43.163 85.612 45.252 81.556 L 47.341 77.500 47.921 76.400 L 48.500 75.299 51.125 71.368 L 53.750 67.436 57.625 63.423 L 61.500 59.409 65.500 56.551 L 69.500 53.692 72.740 50.660 L 75.979 47.628 76.616 44.064 L 77.253 40.500 78.500 39 L 79.747 37.500 80.925 33.830 L 82.102 30.160 83.551 28.958 L 85 27.755 85 26.012 L 85 24.270 87 21.727 L 89 19.185 89 18.151 L 89 17.118 88.250 16.735 M 145.310 17 L 141.865 17 142.555 19.250 L 143.245 21.500 144.215 22.714 L 145.185 23.927 148.061 29.714 L 150.937 35.500 150.969 37.128 L 151 38.755 152.493 39.994 L 153.986 41.233 155.027 45.101 L 156.069 48.970 159.712 51.735 L 163.355 54.500 168.707 59.423 L 174.059 64.346 178.026 69.923 L 181.993 75.500 185.367 82.500 L 188.741 89.500 189.456 93.465 L 190.171 97.431 191.637 100.265 L 193.103 103.099 192.871 116.061 L 192.640 129.022 194.776 131.911 L 196.912 134.799 197.608 137.650 L 198.305 140.500 200.152 142.885 L 202 145.270 202 146.543 L 202 147.815 204.648 152.920 L 207.297 158.025 210.148 152.371 L 213 146.718 213 144.396 L 213 142.074 215 137 L 217 131.926 217 114.178 L 217 96.431 215 90.740 L 213 85.050 212.996 83.275 L 212.993 81.500 211.165 78.500 L 209.338 75.500 208.607 72.579 L 207.876 69.658 205.938 67.194 L 204 64.730 204 63.910 L 204 63.089 201.431 59.294 L 198.862 55.500 193.052 48.413 L 187.243 41.327 179.700 35.163 L 172.157 29 171.213 29 L 170.270 29 167.885 27.138 L 165.500 25.275 163 24.519 L 160.500 23.763 159 22.493 L 157.500 21.223 154.319 20.547 L 151.138 19.871 149.947 18.436 L 148.755 17 145.310 17 M 116.179 119.079 L 106.500 119.158 105.250 119.662 L 104 120.167 104 121.136 L 104 122.106 101.500 125.785 L 99 129.464 99 131.161 L 99 132.857 97.449 134.408 L 95.897 135.960 94.599 140.964 L 93.301 145.968 93.817 146.484 L 94.333 147 116.198 147 L 138.063 147 138.610 145.574 L 139.157 144.148 135.579 136.884 L 132 129.620 132 128.860 L 132 128.100 128.929 123.550 L 125.858 119 116.179 119.079 M 80.960 174 L 79.190 174 76.595 178.428 L 74 182.856 74 183.787 L 74 184.718 71.008 190.609 L 68.017 196.500 71.258 199.194 L 74.500 201.889 78.478 202.571 L 82.456 203.253 84.478 204.567 L 86.500 205.880 92 206.557 L 97.500 207.234 103.500 208.602 L 109.500 209.970 116.185 209.985 L 122.870 210 125.341 209.061 L 127.812 208.121 136.042 206.994 L 144.273 205.867 146.386 204.530 L 148.500 203.192 152.973 202.471 L 157.446 201.749 160.096 199.247 L 162.746 196.746 162.214 194.623 L 161.682 192.500 159.841 190.115 L 158 187.730 158.001 186.615 L 158.003 185.500 155.251 179.763 L 152.500 174.026 150.885 174.013 L 149.270 174 146.727 176 L 144.185 178 142.304 178 L 140.423 178 136.461 180.227 L 132.500 182.454 115.956 182.477 L 99.412 182.500 96.956 180.911 L 94.500 179.321 91.169 178.669 L 87.838 178.018 85.284 176.009 L 82.730 174 80.960 174" stroke="none" fill="white" fill-rule="evenodd"/>
</svg>